#N canvas 549 131 819 614 10;
#X msg 444 62 \; pd dsp 1 \;;
#X msg 514 62 \; pd dsp 0 \;;
#X obj 49 404 dac~;
#X obj 53 159 hsl 128 15 20 20000 0 0 empty empty empty -2 -8 0 10
-262144 -1 -1 0 1;
#X floatatom 50 196 8 0 0 0 - - -;
#X obj 258 349 dac~;
#X obj 261 166 hsl 128 15 20 5000 0 0 empty empty empty -2 -8 0 10
-262144 -1 -1 0 1;
#X floatatom 258 203 8 0 0 0 - - -;
#X obj 447 305 dac~;
#X obj 448 196 noise~;
#X obj 50 227 osc~ 440;
#X obj 258 233 phasor~;
#X text 104 227 oscillator audio;
#X text 102 238 object;
#X text 53 144 frequencies in Hz;
#X text 86 358 signal multiplier;
#X text 138 268 volume level;
#X obj 78 287 hsl 128 15 0 0.5 0 0 empty empty empty -2 -8 0 10 -262144
-1 -1 0 1;
#X text 306 235 phasor object;
#X text 302 299 signal multiplier;
#X text 294 263 volume level;
#X obj 295 278 hsl 128 15 0 0.5 0 0 empty empty empty -2 -8 0 10 -262144
-1 -1 0 1;
#X text 441 96 digital signal processing on/off;
#X text 491 261 signal multiplier;
#X text 483 225 volume level;
#X obj 484 240 hsl 128 15 0 0.3 0 0 empty empty empty -2 -8 0 10 -262144
-1 -1 0 1;
#X text 257 150 frequencies in Hz;
#X text 494 193 noise object;
#X text 289 348 digital to analog converter;
#X text 293 359 audio output;
#X text 480 305 digital to analog converter;
#X text 484 316 audio output;
#X text 82 402 digital to analog converter;
#X text 86 413 audio output;
#X obj 50 360 *~;
#X obj 259 300 *~;
#X obj 448 261 *~;
#X obj 74 330 vline~;
#X msg 74 308 \$1 50;
#X text 117 330 smoothing;
#X obj 27 12 cnv 15 650 40 empty empty SOUND_PROCESSING_with_OSC~_PHASOR~_NOISE~
20 12 0 14 -261682 -66577 0;
#X text 288 427 comment;
#X text 288 399 comment;
#X connect 3 0 4 0;
#X connect 4 0 10 0;
#X connect 6 0 7 0;
#X connect 7 0 11 0;
#X connect 9 0 36 0;
#X connect 10 0 34 0;
#X connect 11 0 35 0;
#X connect 17 0 38 0;
#X connect 21 0 35 1;
#X connect 25 0 36 1;
#X connect 34 0 2 1;
#X connect 34 0 2 0;
#X connect 35 0 5 1;
#X connect 35 0 5 0;
#X connect 36 0 8 1;
#X connect 36 0 8 0;
#X connect 37 0 34 1;
#X connect 38 0 37 0;
