#N canvas 534 23 705 693 10;
#X floatatom 20 98 0 0 0 0 - - -;
#X obj 20 125 mtof;
#X text 49 99 <-- choose a pitch;
#X obj 19 326 osc~;
#X obj 156 319 osc~;
#X obj 349 316 osc~;
#X obj 507 323 osc~;
#X obj 21 451 +~;
#X obj 156 382 +~;
#X obj 156 411 +~;
#X obj 22 634 dac~;
#X obj 50 500 vsl 25 40 0 0.5 0 0 empty empty empty 0 -9 0 10 -262144
-1 -1 2000 1;
#X obj 22 593 *~;
#X text 52 597 signal multiplier;
#X text 20 652 digital to analog converter;
#X text 24 663 audio output;
#X obj 48 571 vline~;
#X msg 49 549 \$1 50;
#X text 96 557 smoothing the volume control;
#X text 101 512 volume;
#X obj 201 237 vsl 25 40 0 1 0 0 empty empty empty 0 -9 0 10 -262144
-1 -1 546 1;
#X obj 199 308 vline~;
#X msg 200 286 \$1 50;
#X obj 156 344 *~;
#X obj 391 245 vsl 25 40 0 1 0 0 empty empty empty 0 -9 0 10 -262144
-1 -1 468 1;
#X obj 389 316 vline~;
#X msg 390 294 \$1 50;
#X obj 350 342 *~;
#X obj 546 252 vsl 25 40 0 1 0 0 empty empty empty 0 -9 0 10 -262144
-1 -1 2145 1;
#X obj 544 323 vline~;
#X msg 545 301 \$1 50;
#X obj 507 347 *~;
#X obj 155 240 *~ 2;
#X obj 350 245 *~ 3;
#X obj 507 251 *~ 4;
#X obj 201 190 random 100;
#X obj 200 213 / 100;
#X obj 391 197 random 100;
#X obj 390 220 / 100;
#X obj 547 200 random 100;
#X obj 546 223 / 100;
#X obj 199 75 tgl 15 0 empty empty empty 17 7 0 10 -262144 -1 -1 0
1;
#X floatatom 251 75 5 0 0 0 - - -;
#X obj 201 121 bng 15 250 50 0 empty empty empty 17 7 0 10 -262144
-1 -1;
#X obj 69 256 vsl 25 40 0 1 0 0 empty empty empty 0 -9 0 10 -262144
-1 -1 1443 1;
#X obj 67 327 vline~;
#X msg 68 305 \$1 50;
#X obj 69 209 random 100;
#X obj 68 232 / 100;
#X obj 19 362 *~;
#X obj 200 96 metro 400;
#X text 50 454 add the overtones;
#X obj 18 13 cnv 15 650 40 empty empty ADDITIVE_SYNTHESIS 20 12 0 14
-262130 -66577 0;
#X text 221 121 Randomize;
#X connect 0 0 1 0;
#X connect 1 0 3 0;
#X connect 1 0 32 0;
#X connect 1 0 33 0;
#X connect 1 0 34 0;
#X connect 3 0 49 0;
#X connect 4 0 23 0;
#X connect 5 0 27 0;
#X connect 6 0 31 0;
#X connect 7 0 12 0;
#X connect 8 0 9 0;
#X connect 9 0 7 1;
#X connect 11 0 17 0;
#X connect 12 0 10 1;
#X connect 12 0 10 0;
#X connect 16 0 12 1;
#X connect 17 0 16 0;
#X connect 20 0 22 0;
#X connect 21 0 23 1;
#X connect 22 0 21 0;
#X connect 23 0 8 0;
#X connect 24 0 26 0;
#X connect 25 0 27 1;
#X connect 26 0 25 0;
#X connect 27 0 8 1;
#X connect 28 0 30 0;
#X connect 29 0 31 1;
#X connect 30 0 29 0;
#X connect 31 0 9 1;
#X connect 32 0 4 0;
#X connect 33 0 5 0;
#X connect 34 0 6 0;
#X connect 35 0 36 0;
#X connect 36 0 20 0;
#X connect 37 0 38 0;
#X connect 38 0 24 0;
#X connect 39 0 40 0;
#X connect 40 0 28 0;
#X connect 41 0 50 0;
#X connect 42 0 50 1;
#X connect 43 0 35 0;
#X connect 43 0 37 0;
#X connect 43 0 39 0;
#X connect 43 0 47 0;
#X connect 44 0 46 0;
#X connect 45 0 49 1;
#X connect 46 0 45 0;
#X connect 47 0 48 0;
#X connect 48 0 44 0;
#X connect 49 0 7 0;
#X connect 50 0 43 0;
