#N canvas 775 42 661 614 10;
#X obj -101 116 openpanel;
#X obj -100 95 bng 15 250 50 0 empty empty empty 17 7 0 10 -262144
-1 -1;
#X obj -111 62 cnv 15 250 20 empty empty empty 20 12 0 14 -261682 -66577
0;
#X text -94 21 2020.07.31 - PD workshop - 2;
#X text -95 64 [7] simple sampler;
#X text -93 42 // sampler and effect;
#X obj -101 170 soundfiler;
#X obj -99 194 expr 44100 / $f1;
#X floatatom -98 219 10 0 0 0 - - -;
#N canvas 0 22 450 278 (subpatch) 0;
#X array array1 465920 float 2;
#X coords 0 1 465920 -1 100 70 1 0 0;
#X restore 121 -14 graph;
#X msg 55 93 read -resize soundfile/piano1.wav array1;
#X msg -101 139 read -resize \$1 array2;
#N canvas 0 22 450 278 (subpatch) 0;
#X array array2 47660 float 2;
#X coords 0 1 47660 -1 100 70 1 0 0;
#X restore 235 -14 graph;
#X obj 56 118 soundfiler;
#X obj 58 142 expr 44100 / $f1;
#X floatatom 59 167 10 0 0 0 - - -;
#X obj 60 193 phasor~;
#X obj 124 229 unsig~ 50;
#X obj 63 256 *~;
#X floatatom 104 341 5 0 0 0 - - -;
#X obj 79 318 hsl 100 15 0 1 0 0 empty empty empty -2 -8 0 10 -204786
-1 -1 0 1;
#X obj 65 343 *~ 0;
#X obj 64 292 tabread4~ array1;
#X obj 64 372 dac~;
#X obj 127 255 hsl 100 15 0 1 0 0 empty empty empty -2 -8 0 10 -203904
-1 -1 4277 1;
#X msg 117 193 0;
#X obj 353 64 cnv 15 250 20 empty empty empty 20 12 0 14 -261682 -66577
0;
#X text 359 65 [8] speed variation sampler;
#X msg 129 166 0;
#X text 153 165 stop file;
#X obj 482 114 cnv 15 110 90 empty empty empty 20 12 0 14 -204800 -66577
0;
#X msg 353 95 read -resize soundfile/piano1.wav array1;
#X obj 354 120 soundfiler;
#X obj 356 144 expr 44100 / $f1;
#X floatatom 355 304 10 0 0 0 - - -;
#X obj 354 375 phasor~;
#X obj 244 417 unsig~ 50;
#X obj 357 438 *~;
#X floatatom 398 523 5 0 0 0 - - -;
#X obj 373 500 hsl 100 15 0 1 0 0 empty empty empty -2 -8 0 10 -204786
-1 -1 4300 1;
#X obj 359 525 *~ 0;
#X obj 358 554 dac~;
#X obj 247 439 hsl 100 15 0 1 0 0 empty empty empty -2 -8 0 10 -203904
-1 -1 8523 1;
#X msg 411 375 0;
#X obj 380 274 t b f;
#X obj 353 332 *;
#X obj 382 214 hsl 100 15 -2 2 0 0 empty empty speed:_-2_2 -2 -8 0
10 -262130 -1 -1 8388 1;
#X msg 504 153 \$1 1000;
#X msg 487 120 0;
#X obj 505 176 line;
#X floatatom 420 275 5 0 0 0 - - -;
#X msg 516 120 2;
#X msg 548 122 -2;
#X msg 578 123 0.5;
#X obj 481 244 cnv 15 130 280 empty empty empty 20 12 0 14 -203904
-66577 0;
#X obj 490 347 metro 100;
#X floatatom 570 318 5 0 0 0 - - -;
#X obj 529 273 metro 200;
#X obj 491 368 bng 15 250 50 0 empty empty empty 17 7 0 10 -262144
-1 -1;
#X floatatom 510 459 5 0 0 0 - - -;
#X obj 485 389 random 100;
#X obj 494 410 / 100;
#X obj 528 319 * 50;
#X obj 490 315 tgl 15 0 empty empty empty 17 7 0 10 -262130 -1 -1 0
1;
#X obj 503 435 + 0.5;
#X obj 529 295 random 20;
#X msg 513 481 \$1 50;
#X obj 514 505 line;
#X obj 358 474 tabread4~ array1;
#X msg 388 333 0;
#X obj 532 250 tgl 15 0 empty empty empty 17 7 0 10 -262130 -1 -1 0
1;
#X connect 0 0 11 0;
#X connect 1 0 0 0;
#X connect 6 0 7 0;
#X connect 7 0 8 0;
#X connect 10 0 13 0;
#X connect 11 0 6 0;
#X connect 13 0 14 0;
#X connect 13 0 18 1;
#X connect 14 0 15 0;
#X connect 15 0 16 0;
#X connect 16 0 17 0;
#X connect 16 0 18 0;
#X connect 17 0 24 0;
#X connect 18 0 22 0;
#X connect 20 0 19 0;
#X connect 20 0 21 1;
#X connect 21 0 23 0;
#X connect 22 0 21 0;
#X connect 25 0 16 1;
#X connect 28 0 16 0;
#X connect 31 0 32 0;
#X connect 32 0 33 0;
#X connect 32 0 37 1;
#X connect 33 0 34 0;
#X connect 34 0 45 0;
#X connect 35 0 36 0;
#X connect 35 0 37 0;
#X connect 36 0 42 0;
#X connect 37 0 68 0;
#X connect 39 0 38 0;
#X connect 39 0 40 1;
#X connect 40 0 41 0;
#X connect 43 0 35 1;
#X connect 44 0 34 0;
#X connect 44 1 50 0;
#X connect 45 0 35 0;
#X connect 46 0 44 0;
#X connect 47 0 49 0;
#X connect 48 0 47 0;
#X connect 49 0 50 0;
#X connect 49 0 46 0;
#X connect 50 0 45 1;
#X connect 51 0 47 0;
#X connect 52 0 47 0;
#X connect 53 0 47 0;
#X connect 55 0 58 0;
#X connect 56 0 55 1;
#X connect 57 0 65 0;
#X connect 58 0 60 0;
#X connect 59 0 66 0;
#X connect 60 0 61 0;
#X connect 61 0 64 0;
#X connect 62 0 56 0;
#X connect 63 0 55 0;
#X connect 64 0 59 0;
#X connect 65 0 62 0;
#X connect 66 0 67 0;
#X connect 67 0 46 0;
#X connect 68 0 40 0;
#X connect 69 0 35 0;
#X connect 70 0 57 0;
